<?xml version="1.0" encoding="UTF-8" standalone="no"?>
<!-- Created with Inkscape (http://www.inkscape.org/) -->

<svg
   xmlns:dc="http://purl.org/dc/elements/1.1/"
   xmlns:cc="http://creativecommons.org/ns#"
   xmlns:rdf="http://www.w3.org/1999/02/22-rdf-syntax-ns#"
   xmlns:svg="http://www.w3.org/2000/svg"
   xmlns="http://www.w3.org/2000/svg"
   xmlns:sodipodi="http://sodipodi.sourceforge.net/DTD/sodipodi-0.dtd"
   xmlns:inkscape="http://www.inkscape.org/namespaces/inkscape"
   width="966.60297"
   height="416.62961"
   viewBox="0 0 255.74704 110.23325"
   version="1.1"
   id="svg4577"
   inkscape:version="0.92.5 (2060ec1f9f, 2020-04-08)"
   sodipodi:docname="diourbel.svg">
  <defs
     id="defs4571" />
  <sodipodi:namedview
     id="base"
     pagecolor="#ffffff"
     bordercolor="#666666"
     borderopacity="1.0"
     inkscape:pageopacity="0.0"
     inkscape:pageshadow="2"
     inkscape:zoom="0.35"
     inkscape:cx="-158.12725"
     inkscape:cy="434.0291"
     inkscape:document-units="px"
     inkscape:current-layer="layer1"
     showgrid="false"
     fit-margin-top="0"
     fit-margin-left="0"
     fit-margin-right="0"
     fit-margin-bottom="0"
     inkscape:window-width="1366"
     inkscape:window-height="738"
     inkscape:window-x="0"
     inkscape:window-y="0"
     inkscape:window-maximized="1"
     units="px" />
  <metadata
     id="metadata4574">
    <rdf:RDF>
      <cc:Work
         rdf:about="">
        <dc:format>image/svg+xml</dc:format>
        <dc:type
           rdf:resource="http://purl.org/dc/dcmitype/StillImage" />
        <dc:title></dc:title>
      </cc:Work>
    </rdf:RDF>
  </metadata>
  <g
     inkscape:label="Layer 1"
     inkscape:groupmode="layer"
     id="layer1"
     transform="translate(121.0699,-153.43695)">
    <g
       id="g2436"
       transform="matrix(0.17572677,0,0,0.17572677,-1136.9613,116.67755)">
      <path
         inkscape:connector-curvature="0"
         id="path1580"
         d="m 6534.5804,806.92569 c 1.6735,-17.90782 -23.0803,-29.06018 -7.2145,-48.26737 9.5528,-27.38062 -20.0799,-44.59633 -25.758,-65.07169 8.4919,-4.06793 22.3559,-5.45692 8.0311,-18.02301 -25.7144,-4.15522 -18.2799,-39.37621 -26.924,-58.19621 -9.3253,-21.0416 -18.3443,-43.02308 -21.1815,-66.24426 -3.3499,-25.9155 -7.8866,-51.46995 -19.741,-74.30399 -3.1034,-22.52892 -2.1225,-45.99192 7.4095,-66.86793 21.1238,-17.85776 17.6369,-46.0657 14.1847,-70.80034 0.3639,-13.97975 -3.9647,-22.56029 -18.53,-20.58921 -29.6635,-3.44483 -59.3413,-6.88856 -88.994,-10.34969 10.2487,29.53504 -45.7894,31.6401 -57.271,18.44543 0.5005,-22.45206 -25.7481,-15.22787 -38.2825,-25.84662 -16.0229,-8.68202 -26.8414,-31.97367 -45.8167,-31.56035 -29.0923,-0.6337 -57.1378,-9.34556 -85.2445,-15.86141 8.0665,18.62015 42.2739,36.4781 21.2618,59.42312 7.8343,23.75658 -2.232,48.45251 -3.4255,73.00017 5.1982,22.53141 8.5632,45.27367 11.9068,68.25872 3.115,23.3613 3.2672,47.55132 11.2326,70.09178 2.1098,22.76935 27.6201,34.82753 41.7985,50.09705 26.0401,2.54539 48.7156,40.86815 22.1751,58.21629 -24.4583,4.90281 -46.8788,22.47351 -52.4782,47.58267 4.1283,23.70393 -20.0021,50.68336 -3.3781,69.21808 21.4269,28.07804 58.7368,-2.17283 87.7884,6.63324 25.5806,-3.89687 49.8394,3.30017 73.793,10.12097 29.5667,-0.26712 46.2435,33.73493 76.3253,29.63799 28.4823,-3.49763 57.2525,-0.26562 85.4184,4.25855 10.2966,2.86896 23.2129,9.00509 32.9143,6.99802 z"
         style="fill:#55d400;stroke:#340802;stroke-width:18.0516777;stroke-miterlimit:5.60130692;stroke-dasharray:none;stroke-opacity:1" />
      <path
         sodipodi:nodetypes="ccccccccccccccccccccccccccc"
         inkscape:connector-curvature="0"
         id="path1582"
         d="m 6083.7327,732.20261 c -22.0245,-4.68225 -44.3471,-3.14344 -66.2715,1.71003 -13.6341,1.06813 -37.5969,12.93708 -37.5969,12.93708 0,0 -13.9898,-19.16624 -27.2891,-11.96984 -22.7064,5.23547 -47.7153,5.53752 -66.2025,-10.88577 -20.1656,-15.4801 -29.8305,-45.96011 -7.345,-63.76838 17.2556,-23.30188 -3.0553,-51.3375 4.5129,-76.71963 5.4051,-20.81203 -1.1637,-43.09558 -16.8765,-57.70426 -5.7347,-18.57124 -51.3708,-25.67436 -21.1543,-44.23601 22.02,-15.28481 14.1693,-47.62243 -6.5343,-60.03123 -19.3488,-14.74794 -24.0105,-41.62401 -45.6933,-54.64864 13.8138,-24.3309 37.6009,-41.52588 65.7976,-43.7527 38.9894,-10.40681 78.9438,-18.83498 116.2235,-34.47124 30.9735,-17.46192 63.7663,-36.57954 100.4124,-36.47943 20.597,5.09706 50.2121,-7.99567 60.9621,12.42256 15.2231,13.82217 28.7697,33.12484 13.127,51.88119 10.6265,22.42786 -3.2603,46.07387 -2.6804,69.31396 5.2056,22.53114 8.5597,45.27346 11.9058,68.25872 3.108,23.36275 3.2785,47.54905 11.2313,70.09178 2.1138,22.76714 27.6252,34.82252 41.7969,50.09611 24.627,3.48815 46.0703,34.73013 26.2398,56.22364 -24.2694,6.57235 -48.6413,20.44499 -55.7579,46.20741 -4.7163,20.45681 -19.0276,61.36301 -19.0276,61.36301 l -0.3892,0.89234 -16.4283,4.35276 c 0,0 -36.7547,1.56318 -62.9629,-11.08346 z"
         style="fill:#55d400;stroke:#340802;stroke-width:18.0516777;stroke-miterlimit:5.60130692;stroke-dasharray:none;stroke-opacity:1" />
      <path
         sodipodi:nodetypes="cccccccccccccccccccccccccccccccccccccc"
         inkscape:connector-curvature="0"
         id="path1584"
         d="m 6533.5815,808.24346 c 18.5287,5.45461 48.7602,18.79731 48.7602,18.79731 0,0 49.0438,-10.63739 74.4004,-12.85229 32.7601,-17.7227 75.5779,-8.60066 103.4508,-37.0601 30.1445,-13.43266 46.5615,-42.84549 50.1247,-74.70922 -6.6107,-32.79126 -2.4203,-65.48655 0.2816,-98.4979 -7.0518,-22.01899 2.2498,-34.8099 21.2455,-44.31408 10.1634,-0.58885 20.1702,13.84898 30.2733,19.0466 25.6079,16.94039 47.8359,42.71589 79.8051,46.35374 17.3689,-4.6927 24.3849,-40.56191 45.021,-20.50984 23.2988,16.13176 44.5909,35.88152 72.3687,43.93816 12.9471,17.26982 18.6425,-31.15144 44.3219,-26.48871 20.554,-8.59628 50.3478,-36.98537 70.8416,-25.91318 28.9935,34.33012 11.0148,-29.34534 37.0721,-22.1434 3.9567,10.24297 4.653,-20.15086 7.2343,-27.05036 2.6891,-15.86845 5.3783,-31.73691 8.0675,-47.60536 -19.7464,-23.20619 -46.7875,-48.16628 -79.5622,-42.64163 -25.5825,36.92614 -68.4423,18.62728 -100.3289,-0.67077 -25.5871,-20.48757 -58.9918,-11.33999 -89.1918,-14.90563 -26.0441,5.82164 -24.1,-7.03045 -25.5125,-26.3497 0.1257,-11.28318 65.1639,9.71469 63.8235,1.60673 -22.0789,-21.25705 -36.2664,-54.84263 -61.8548,-69.57192 -15.7701,10.98842 -10.0668,52.3382 -39.4664,36.63891 -34.5566,24.03334 -67.4948,-17.95028 -76.9399,-47.73844 -48.2981,-1.30799 -11.5615,-63.90658 -45.761,-76.09384 -14.5552,-8.91283 -43.4185,-71.13832 -46.552,-23.49739 12.8867,37.45332 -28.8244,26.77094 -43.8418,46.84281 -6.6045,12.93346 -18.3015,15.47521 -31.8181,14.30368 -23.7814,1.16958 -47.5628,2.33915 -71.3442,3.50873 -7.246,10.4079 -12.6132,24.25194 -27.84,20.06298 -30.2408,0.19325 -60.6553,4.727 -90.6813,-0.42877 8.3578,33.49219 10.693,69.51672 -12.582,96.2695 -19.4845,36.67184 2.4601,72.70095 9.5072,107.47979 3.2812,38.21882 18.0259,73.11965 29.3537,108.9222 1.2032,23.60765 11.3691,39.63137 29.2454,50.55977 1.5039,10.61806 -28.8434,8.87139 -7.1766,23.81628 37.2841,21.81175 0.5576,65.85973 25.7928,88.37415 -0.3144,3.86432 2.8484,9.38504 -0.5378,12.52119 z"
         style="fill:#55d400;stroke:#340802;stroke-width:18.0516777;stroke-miterlimit:5.60130692;stroke-dasharray:none;stroke-opacity:1" />
    </g>
  </g>
</svg>
