<?xml version="1.0" encoding="UTF-8" standalone="no"?>
<!-- (c) ammap.com | SVG map of Senegal - High -->

<svg
   xmlns:amcharts="http://amcharts.com/ammap"
   xmlns:dc="http://purl.org/dc/elements/1.1/"
   xmlns:cc="http://creativecommons.org/ns#"
   xmlns:rdf="http://www.w3.org/1999/02/22-rdf-syntax-ns#"
   xmlns:svg="http://www.w3.org/2000/svg"
   xmlns="http://www.w3.org/2000/svg"
   xmlns:sodipodi="http://sodipodi.sourceforge.net/DTD/sodipodi-0.dtd"
   xmlns:inkscape="http://www.inkscape.org/namespaces/inkscape"
   viewBox="0 0 310.82599 444.752"
   version="1.1"
   id="svg22"
   sodipodi:docname="thiess.svg"
   width="310.82599"
   height="444.75201"
   inkscape:version="0.92.5 (2060ec1f9f, 2020-04-08)">
  <metadata
     id="metadata26">
    <rdf:RDF>
      <cc:Work
         rdf:about="">
        <dc:format>image/svg+xml</dc:format>
        <dc:type
           rdf:resource="http://purl.org/dc/dcmitype/StillImage" />
        <dc:title></dc:title>
      </cc:Work>
    </rdf:RDF>
  </metadata>
  <sodipodi:namedview
     pagecolor="#ffffff"
     bordercolor="#666666"
     borderopacity="1"
     objecttolerance="10"
     gridtolerance="10"
     guidetolerance="10"
     inkscape:pageopacity="0"
     inkscape:pageshadow="2"
     inkscape:window-width="1366"
     inkscape:window-height="738"
     id="namedview24"
     showgrid="false"
     fit-margin-top="0"
     fit-margin-left="0"
     fit-margin-right="0"
     fit-margin-bottom="0"
     inkscape:zoom="0.3041024"
     inkscape:cx="28.957108"
     inkscape:cy="361.22761"
     inkscape:window-x="0"
     inkscape:window-y="0"
     inkscape:window-maximized="1"
     inkscape:current-layer="svg22" />
  <defs
     id="defs4">
    <style
       type="text/css"
       id="style2">
			.land
			{
				fill: #CCCCCC;
				fill-opacity: 1;
				stroke:white;
				stroke-opacity: 1;
				stroke-width:0.5;
			}
		</style>
    <amcharts:ammap
       projection="mercator"
       leftLongitude="-17.531313"
       topLatitude="16.691273"
       rightLongitude="-11.341837"
       bottomLatitude="12.307237" />
    <!-- All areas are listed in the line below. You can use this list in your script. -->
    <!--{id:"SN-DK"},{id:"SN-DB"},{id:"SN-FK"},{id:"SN-KE"},{id:"SN-KA"},{id:"SN-KL"},{id:"SN-KD"},{id:"SN-LG"},{id:"SN-MT"},{id:"SN-SE"},{id:"SN-SL"},{id:"SN-TC"},{id:"SN-TH"},{id:"SN-ZG"}-->
  </defs>
  <path
     style="fill:#cccccc;fill-opacity:1;stroke:#ffffff;stroke-width:0.23356129;stroke-miterlimit:10;stroke-opacity:1"
     d="m 22.151094,229.47926 c 0.4671,-3.39042 -1.5813,-9.11154 -1.5813,-9.93686 0,-3.30128 -4.092,-9.07852 -6.1553,-11.55448 -2.0633,-2.47597 -1.6506,-3.71394 -2.4759,-6.1899 -0.8254,-2.47597 -1.6507,-5.36459 -3.3013,-7.84055 -1.6507,-2.47596 -8.41499999,-14.23017 -8.41499999,-14.23017 l 0.88469999,0.13534 1.8917,-0.74774 0.2872,-0.10895 0.2872,-0.11059 4.1745,-1.70016 4.9915,-3.39701 5.9721,-4.70928 2.7829,-3.57364 2.4975,-4.07873 c 2.2135,-0.0924 2.4429,2.16564 4.0209,2.84075 1.1092,0.033 2.6031,2.08971 2.1211,1.99397 1.4129,1.13564 0.3945,4.46333 1.583,6.02649 0.5232,1.40305 1.6407,1.92465 2.8886,2.62617 0.9788,1.26109 1.9956,0.71968 2.3637,2.09797 -0.022,0.9161 1.2066,3.44654 1.5747,5.25399 0.6107,1.07126 0.091,3.27652 0.2624,4.78685 0.3748,1.49383 0.246,3.48451 0.2625,5.33653 0.068,1.76783 0.026,3.42507 -0.5249,4.57392 0.1453,0.0578 2.7896,-2.02864 4.2306,-1.31226 h 2.867099 c 1.7035,0.35159 2.0881,1.97087 3.1396,2.62452 0.8237,0.62559 1.5417,1.65559 3.1725,1.57636 2.2845,-0.12049 3.0421,0.36479 3.917,-0.5216 1.1472,-1.22148 1.9841,-1.89659 2.6262,-2.88862 1.5499,-0.6388 2.2036,-2.85396 3.6792,-3.41188 0.9789,-1.19836 3.3145,-1.13399 4.2356,-2.67734 1.0597,-0.2674 1.9015,-1.84541 3.9747,-1.26274 1.7002,0.15517 3.7486,-0.41266 4.9156,0.52161 2.0089,0.37965 4.158,1.34692 6.8304,1.05311 2.301,0.0957 4.4088,-0.28557 5.5131,-1.31391 1.1389,-1.32382 2.8556,-2.01544 4.4518,-2.64433 2.2317,-0.93426 2.3109,-2.28614 5.046,-2.09796 1.6523,0.64374 2.2251,1.67374 3.106497,2.37362 1.0927,0.68171 3.0191,0.5315 4.8001,0.5249 2.38186,0.36149 3.39865,-1.21982 5.17805,-2.36537 0.93589,-1.16535 2.31418,-1.88833 4.20089,-2.09796 1.36833,-0.65201 4.09026,0.0528 5.52634,-0.52491 h 6.81713 c 1.34527,0.42422 4.04903,0.53481 4.72412,-0.2608 2.00222,-0.85833 3.6628,-1.64073 4.72577,-2.36537 1.53348,-0.33013 2.13102,-1.83881 3.6793,-2.62616 0.62394,-0.92932 1.95765,-1.96757 3.14779,-2.36537 1.58952,-1.7893 3.12959,-2.06165 4.46494,-2.88862 1.61602,-0.42752 2.62617,-2.02864 4.46338,-2.36537 0.50835,-1.03826 1.54827,-1.89659 2.80114,-1.23468 0,0 5.95221,5.40585 7.60284,9.53245 1.65062,4.1266 4.12661,5.36458 7.42786,8.2532 3.30129,2.88862 3.30129,9.49118 3.30129,9.49118 0,0 -3.30129,4.95193 -5.77724,7.01523 -2.47597,2.0633 -1.23796,2.88862 2.06329,4.53926 3.3013,1.65064 4.53925,4.53926 7.84055,8.2532 3.3013,3.71395 3.3013,9.49119 2.47594,13.20513 -0.8253,3.71394 -0.41265,6.1899 0.4127,11.14182 0.82533,4.95193 0.41266,6.18991 -1.65067,9.90385 -2.06327,3.71394 -4.12659,5.77724 -4.12659,5.77724 -0.0159,0.87155 -0.18485,1.54996 -0.26739,3.19234 l -1.3618,-0.31691 h -9.02898 c -2.72191,0.50509 -3.39536,-1.40471 -4.08536,-3.42509 -0.51005,-1.37333 -0.78732,-2.89357 -1.85367,-3.92522 -0.822,-1.82396 -3.88889,-0.0264 -5.25233,0.2608 -0.75931,0.80056 -2.18875,1.96261 -4.20252,1.83716 -1.03001,1.0234 -3.60828,0.97058 -5.92414,1.04981 -2.37527,-0.26245 -4.27021,0.28391 -5.23421,1.05311 -1.25282,0.40111 -1.66052,2.09797 -2.49742,2.88863 -1.34858,1.01679 -1.06298,3.12136 -2.36368,3.67597 l -25.60477,36.65084 c -1.37335,2.51061 -2.86875,1.66878 -4.32965,1.42119 -1.3981,-0.64376 -2.885297,-2.5684 -3.938397,-3.07514 -1.1719,-1.51199 -4.6119,-0.619 -6.8485,-0.85999 -2.2927,-0.5117 -2.5222,1.97582 -3.1296,3.15107 -0.7246,1.12739 -3.3541,-0.65364 -3.676,-1.23797 -0.718,-1.27265 -1.6506,-2.4248 -1.3139,-4.45839 0.3796,-2.41653 0.6619,-5.12358 0.5232,-7.95444 -0.5925,-1.46742 -1.403,-2.92328 -2.3637,-3.94173 -0.8055,-1.02009 -2.5056,-2.18709 -2.8886,-3.14941 -0.992,-0.9128 -1.3486,-2.41819 -2.0996,-3.41187 -0.9244,-1.71833 -1.5153,-4.04738 -3.1494,-5.25236 -0.8798,-1.87842 -1.9924,-2.22506 -2.887,-3.67762 -0.6536,-1.43935 -1.8603,-2.2036 -3.1511,-3.41187 -1.1472,-0.54306 -2.1425,-2.01543 -3.151,-2.62781 -0.8386,-0.64872 -4.0078,-1.54832 -5.2524,-1.83553 -2.4957,-0.0297 -3.0702,-1.11747 -4.9882,-2.09796 -1.479,-1.24954 -3.2336,-1.82231 -5.2623,-2.34887 -2.5849,-0.28556 -2.953,-3.27156 -3.666,-5.53129 -1.355199,-0.90621 -3.773399,-1.60277 -5.775599,-2.09962 -3.0703,-1.14059 -5.8301,-1.64403 -8.7683,-2.09796 -2.2019,0.24099 -3.2732,-1.57141 -4.8875,-2.09962 -0.6619,-1.06632 -2.8936,-1.35353 -3.6776,-2.62617 -1.616,-1.59947 -4.054,-2.27953 -6.6983,-5.07737 0.2475,-5.23913 6.3896,-1.31061 6.8584,-4.69607 z"
     stroke-miterlimit="10"
     sodipodi:nodetypes="sssssccccccccccccccccccccccccccccccccccccccccccccccsscssssssccccccccccccccccccccccccccccccccccccs"
     inkscape:connector-curvature="0"
     title="Thiès"
     id="path1502" />
  <path
     style="fill:#cccccc;fill-opacity:1;stroke:#ffffff;stroke-width:0.23356129;stroke-miterlimit:10;stroke-opacity:1"
     d="m 24.366194,161.53393 c 1.8405,-0.18487 2.0716,2.06826 3.6479,2.74337 1.1093,0.033 2.6031,2.08971 2.1211,1.99232 1.413,1.13564 0.3945,4.46498 1.583,6.02814 0.5233,1.40305 1.6391,1.92465 2.8886,2.62617 0.9788,1.25944 1.9956,0.71968 2.3637,2.09797 -0.022,0.9161 1.2066,3.44653 1.5747,5.25399 0.6108,1.07126 0.091,3.27652 0.2625,4.78685 0.3747,1.49218 0.246,3.48451 0.2624,5.33488 0.068,1.76783 0.027,3.42672 -0.5249,4.57557 0.1454,0.0578 2.7897,-2.02864 4.2323,-1.31391 h 2.865499 c 1.7034,0.35324 2.0881,1.97087 3.1395,2.62617 0.8237,0.62559 1.5417,1.65394 3.1726,1.57636 2.2828,-0.12049 3.0421,0.36479 3.9169,-0.5216 1.1472,-1.22148 1.9841,-1.89659 2.6262,-2.88862 1.55,-0.6388 2.2036,-2.85396 3.6793,-3.41353 0.9788,-1.19506 3.3145,-1.13234 4.2355,-2.67569 1.0598,-0.2674 1.9016,-1.84541 3.9748,-1.26274 1.7001,0.15351 3.7502,-0.41266 4.9156,0.52161 2.0088,0.37964 4.1579,1.34527 6.8287,1.0531 2.3026,0.0941 4.4105,-0.28556 5.5147,-1.3139 1.139,-1.32382 2.8557,-2.01709 4.4519,-2.64598 2.2316,-0.93261 2.3108,-2.28614 5.046,-2.09797 1.6522,0.64375 2.225,1.67375 3.106497,2.37363 1.0927,0.68171 3.019,0.5315 4.8,0.52489 2.38189,0.3615 3.39867,-1.22147 5.17809,-2.36536 0.93425,-1.16535 2.31422,-1.88998 4.20087,-2.09962 1.3684,-0.65035 4.09028,0.0528 5.52634,-0.52325 h 6.81716 c 1.34525,0.42422 4.04902,0.53481 4.72577,-0.2608 2.0006,-0.85833 3.66112,-1.64239 4.72415,-2.36537 1.53511,-0.33013 2.13098,-1.84046 3.67925,-2.62617 0.62399,-0.92931 1.95766,-1.96756 3.14781,-2.36537 1.58957,-1.78929 3.12962,-2.06164 4.46329,-2.88861 1.61602,-0.42917 2.62785,-2.02864 4.465,-2.36538 0.50843,-1.03825 1.54833,-0.58432 2.62616,-0.79065 l 0.35325,0.42256 c 0,0 5.77727,-9.49118 12.37983,-10.72916 6.60254,-1.23798 34.66343,-8.66587 37.55207,-10.72917 2.8886,-2.0633 16.91904,-9.07852 21.45831,-9.49118 4.53926,-0.41266 8.25321,-0.82532 10.31649,-0.41266 2.06333,0.41266 12.37982,0.41266 14.85581,1.23798 2.47594,0.82532 10.3165,2.47596 10.3165,2.47596 l 7.3057,0.86329 h 4.11838 c 0.80219,0.87649 1.65558,1.99397 2.54363,2.76977 0.7857,0.68172 1.86522,1.13564 2.68726,1.78434 0.38458,0.30867 0.65528,0.84678 1.03987,1.16041 0.78406,0.652 1.72989,1.13563 2.51064,1.78599 0.25252,0.20963 0.82036,1.00854 1.04154,1.1571 l 3.03223,1.60937 c 1.55328,0.51995 5.43558,0.65696 6.41276,2.05175 1.12244,1.92794 1.09932,3.14447 1.02337,4.34449 0,0 5.01134,1.45586 8.72529,1.0432 3.71395,-0.41266 7.4279,-2.88862 7.4279,-2.88862 l -0.38958,-7.49721 -0.0229,3.37061 0.0229,-3.37061 c 0.26906,-0.79892 2.73346,-8.42487 0.3879,-12.72314 -2.47594,-4.53926 -5.77723,-10.3165 -5.36457,-15.26842 0.41265,-4.95193 0.41265,-10.72917 0.41265,-10.72917 l -6.60255,-6.60256 -9.08843,-3.31614 2.07323,-9.888993 -9.49118,-10.72916 c 0,0 -1.97252,-15.34931 -0.98876,-17.57602 0.98876,-2.23167 -2.72519,-5.94561 -4.78852,-7.59625 -2.06328,-1.65064 -6.18988,-2.47596 -7.0152,2.0633 -0.82531,4.53926 -3.3013,6.1899 -5.77723,4.53926 -2.47598,-1.65064 -8.25322,-3.71394 -4.95192,-6.60256 3.30125,-2.88863 3.30125,-5.36459 1.23797,-8.25321 -2.06333,-2.88862 -5.36458,-8.66586 -8.25322,-8.66586 -2.88859,0 -18.15705,0.82531 -18.15705,0.82531 l -10.3165,-7.42788 c 0,0 -13.20514,11.96715 -14.4431,15.26843 -1.23797,3.30129 -11.14181,17.33173 -12.37978,19.39503 -1.23803,2.0633 -8.25322,15.68109 -8.25322,15.68109 l -12.79248,15.68108 c 0,0 0.82531,-13.61778 -2.06329,-16.91906 -2.88862,-3.30128 -13.61778,-15.26843 -16.09377,-16.91907 -2.47593,-1.65064 -18.98237,-14.85577 -18.98237,-14.85577 0,0 -5.36457,0.41266 -2.88859,-4.95192 2.47594,-5.36458 5.77723,-18.98237 5.77723,-18.98237 0,0 7.42786,-11.14183 8.66588,-12.79246 1.23796,-1.65065 0,-6.1899051 -1.65067,-8.2532091 -1.65062,-2.063299 -10.08374,-4.08698594 -10.08374,-4.08698594 l -3.39373,7.37340894 -2.542,5.8993861 -2.26464,5.25894 -4.53927,5.83997 -13.83734,23.6966 -1.45421,2.49082 -5.32167,7.18689 -3.1263,6.25923 -10.062297,13.7713 -3.0372,3.57198 -8.0667,9.48459 -16.1399,23.013233 -1.6457,2.35216 -2.4479,2.85396 -0.6454,0.51665 -4.021,3.13457 -4.5855,5.46527 -3.3772,3.71064 -2.777999,3.12961 -3.6793,4.15301 -4.1695,4.40061 -2.651,2.79784 -3.534,4.37254 -3.2204,3.19894 -1.5252,3.29468 -1.7546,3.95659 z"
     stroke-miterlimit="10"
     sodipodi:nodetypes="ccccccccccccccccccccccccccccccccccccccssssscccccccccccscccccsccccccssssssccssccsscscsscccccccccccccccccccccccccccc"
     inkscape:connector-curvature="0"
     title="Tivaouane"
     id="path1504" />
  <path
     style="fill:#cccccc;fill-opacity:1;stroke:#ffffff;stroke-width:0.23356129;stroke-miterlimit:10;stroke-opacity:1"
     d="m 17.014294,234.78937 c 2.2498,1.66054 3.3706,2.86551 4.9866,4.46498 0.7857,1.27264 3.0124,1.5582 3.6793,2.62452 1.6126,0.52986 2.6856,2.34391 4.8858,2.10127 2.9366,0.45228 5.6964,0.95572 8.7683,2.09796 2.0055,0.50179 4.4204,1.19837 5.777199,2.09961 0.7131,2.25478 1.0779,5.24574 3.6661,5.5313 2.0286,0.52491 3.7849,1.09933 5.2622,2.34721 1.9181,0.98709 2.4974,2.07485 4.9883,2.09796 1.2429,0.29052 4.4138,1.19343 5.2523,1.83717 1.0069,0.61238 2.0039,2.08476 3.1511,2.62783 1.2891,1.20825 2.5007,1.97251 3.1494,3.41021 0.8963,1.45422 2.0072,1.80086 2.8886,3.67929 1.6358,1.20331 2.2284,3.53402 3.1511,5.25233 0.7494,0.99698 1.1076,2.50401 2.098,3.41187 0.3829,0.96232 2.0831,2.12934 2.8886,3.14943 0.9606,1.01514 1.7678,2.47265 2.3637,3.94007 0.1387,2.8325 -0.1436,5.53791 -0.5232,7.9561 -0.3368,2.03359 0.5974,3.19069 1.3138,4.45837 0.3186,0.58433 2.9481,2.36537 3.676,1.23799 0.6042,-1.17526 0.8385,-3.66277 3.1296,-3.15107 2.235,0.24099 5.675,-0.652 6.8469,0.85997 1.0547,0.5117 2.541997,2.43636 3.940097,3.07516 1.4608,0.24263 2.9563,1.08776 4.32795,-1.42121 l 25.6064,-36.65082 c 1.3007,-0.55461 1.01184,-2.65424 2.36374,-3.67763 0.83848,-0.79066 1.24292,-2.48587 2.49574,-2.88698 0.96564,-0.76919 2.85725,-1.31391 5.23584,-1.0531 2.31422,-0.0792 4.89414,-0.0281 5.92415,-1.04981 2.01375,0.12545 3.44324,-1.0366 4.20087,-1.83881 1.36012,-0.28557 4.43196,-2.09136 5.25233,-0.2608 1.06798,1.03495 1.34532,2.55354 1.85532,3.92687 0.68997,2.02368 1.36016,3.92852 4.08371,3.42343 h 9.03066 l 1.36012,0.31527 c 1.58957,2.27458 3.26664,5.50653 3.80966,6.23116 1.41791,1.90155 8.01386,6.25924 11.72783,6.25924 3.71394,0 13.20512,-1.65064 13.20512,-1.65064 l 3.31284,3.95494 c 0,0 0.30204,-0.92931 0,0 v 0 c -0.63879,1.98077 -1.28258,4.00444 -1.64572,5.98357 -0.11883,0.64704 -0.0164,1.42119 -0.17166,2.05008 -0.14523,0.57113 -0.63052,1.12904 -0.78075,1.69522 -0.33012,1.24128 -0.37631,2.58821 -0.69325,3.83609 -0.13701,0.53646 -0.52328,1.06796 -0.69326,1.60772 -0.34002,1.06631 -0.48198,2.25477 -0.8666,3.30129 -1.3106,3.57529 -3.32437,7.18523 -5.54283,10.26698 -1.45589,2.02037 -3.32442,4.43693 -5.02619,6.24602 -1.8355,1.94941 -6.45901,4.32302 -7.62433,5.97697 -9.33105,0.82533 -7.74148,6.74122 -13.17047,9.85102 l -1.03992,0.59094 -12.39136,0.71803 c -3.92519,0.22614 -5.39754,5.45371 -6.50019,8.3572 -1.77941,4.69112 -3.29467,9.33932 -4.50461,14.21696 -0.3103,1.24623 -0.34992,2.60636 -0.69326,3.83774 -0.3103,1.11417 0.89795,2.19369 0.53809,3.30128 -0.90453,2.79619 1.32545,7.01193 0.37635,9.7916 -1.12408,3.29468 -3.80307,7.87521 -7.92636,10.34622 -0.79066,2.07649 -3.83939,3.01407 -5.63695,4.22894 -0.39613,1.16864 -0.37305,2.56344 -0.0876,3.74861 l 1.73321,7.2298 c 0.57111,2.38352 4.50291,2.2036 5.54119,5.80199 l -0.25584,2.32081 c -0.60581,0.72957 -1.29743,1.78434 -1.99401,2.40993 -0.15837,0.13859 -1.14389,0.46219 -1.38651,0.62395 -1.77941,1.1835 -3.55054,2.45284 -5.37448,3.57034 -0.88973,0.54471 -2.11942,0.90125 -2.9431,1.51693 -0.0577,0.0413 -0.78238,1.20332 -0.86661,1.34032 -0.59092,4.57392 3.91205,3.11475 4.8826,7.7052 0.14689,0.69822 0.0512,1.81076 -0.28887,2.46936 -3.4713,2.74006 -10.42211,-2.08312 -12.04968,2.9629 0,0 1.23797,3.71393 3.71396,5.36457 2.47595,1.65064 4.53927,4.95193 6.18989,6.60257 1.65066,1.65064 3.3013,4.53925 0.82532,6.60256 -2.47594,2.06329 -6.36158,4.55908 -6.36158,4.55908 -0.27563,-2.33237 -0.43082,-3.23361 -0.81872,-4.96845 -0.1287,-0.58101 -0.42255,-1.11913 -0.54967,-1.6952 -0.14035,-0.65035 -0.0842,-1.45421 -0.274,-2.07651 -0.1552,-0.50343 -0.62557,-1.00853 -0.82363,-1.50868 -0.21128,-0.5282 -0.25589,-1.15875 -0.45559,-1.69521 -0.38957,-1.04981 -3.09166,-6.64548 -3.66444,-7.54177 -0.26242,-0.41596 -0.7857,-0.79397 -1.00357,-1.22477 -1.22315,-2.37363 -0.0627,-3.93018 -2.56674,-6.60091 -2.92166,-0.58433 -5.94563,-0.81048 -8.69724,-1.97747 -1.5301,-0.65202 -2.4858,-1.9032 -3.6627,-3.01739 -0.7197,-0.68005 -1.743097,-1.26768 -2.378597,-1.98075 -3.0867,-3.45481 -2.9497,-12.18999 -3.846,-16.68799 -0.553,-2.77968 -1.4228,-6.4309 -2.471,-9.04881 -0.4325,-1.07787 -1.2,-1.77609 -1.7398,-2.73511 -0.269,-0.47704 -0.3565,-1.13729 -0.6421,-1.60278 -0.9574,-1.55655 -3.9698,-4.68615 -5.4917,-5.66004 -2.7945,-1.78599 -6.6372,-1.25448 -8.4249,-4.71259 -0.2047,-0.39284 -0.2855,-1.03329 -0.3912,-1.53673 l 3.1974,-10.26699 -0.7231,-3.23525 -1.0778,-2.49083 -7.1192,-10.34952 -7.2975,-8.273 -1.5599,-1.20168 -2.0171,-1.54829 -3.4778,-5.45536 -8.4166,-3.59015 -4.836399,-1.61763 -2.273,-0.7725 -0.6305,-2.14912 -1.2776,-3.11972 -0.9442,-0.75105 -2.3455,-0.9194 -1.8091,-2.16729 -1.6375,-3.77997 -0.8913,-4.43693 -1.6078,-5.92745 -2.5799,-4.9057 -3.3194,-4.84628 -2.9283,-1.07126 -2.2003,-0.69492 -1.5202,-1.86853 -1.5549,-4.44683 -2.7351,-5.75083 -0.2658,-0.56121 1.139,-0.60248 2.7549,-17.45884 c 0,0 -1.5252,-3.78656 -1.0564,-6.76432 0.4671,-2.9761 1.0943,-10.65159 1.72,-14.75673"
     stroke-miterlimit="10"
     sodipodi:nodetypes="ccccccccccccccccccccccccccccccccccccscccccccccccccccccccccccccccccscccccsssccccccccccccccccccccccccccccccccccccccccccccccccsc"
     inkscape:connector-curvature="0"
     title="M'bour"
     id="path1506" />
</svg>
