<?xml version="1.0" encoding="UTF-8" standalone="no"?>
<!-- (c) ammap.com | SVG map of Senegal - High -->

<svg
   xmlns:amcharts="http://amcharts.com/ammap"
   xmlns:dc="http://purl.org/dc/elements/1.1/"
   xmlns:cc="http://creativecommons.org/ns#"
   xmlns:rdf="http://www.w3.org/1999/02/22-rdf-syntax-ns#"
   xmlns:svg="http://www.w3.org/2000/svg"
   xmlns="http://www.w3.org/2000/svg"
   xmlns:sodipodi="http://sodipodi.sourceforge.net/DTD/sodipodi-0.dtd"
   xmlns:inkscape="http://www.inkscape.org/namespaces/inkscape"
   viewBox="0 0 472.69392 444.75203"
   version="1.1"
   id="svg22"
   sodipodi:docname="zig.svg"
   width="472.69391"
   height="444.75204"
   inkscape:version="0.92.5 (2060ec1f9f, 2020-04-08)">
  <metadata
     id="metadata26">
    <rdf:RDF>
      <cc:Work
         rdf:about="">
        <dc:format>image/svg+xml</dc:format>
        <dc:type
           rdf:resource="http://purl.org/dc/dcmitype/StillImage" />
        <dc:title></dc:title>
      </cc:Work>
    </rdf:RDF>
  </metadata>
  <sodipodi:namedview
     pagecolor="#ffffff"
     bordercolor="#666666"
     borderopacity="1"
     objecttolerance="10"
     gridtolerance="10"
     guidetolerance="10"
     inkscape:pageopacity="0"
     inkscape:pageshadow="2"
     inkscape:window-width="1366"
     inkscape:window-height="738"
     id="namedview24"
     showgrid="false"
     fit-margin-top="0"
     fit-margin-left="0"
     fit-margin-right="0"
     fit-margin-bottom="0"
     inkscape:zoom="0.3041024"
     inkscape:cx="-815.55006"
     inkscape:cy="143.28216"
     inkscape:window-x="0"
     inkscape:window-y="0"
     inkscape:window-maximized="1"
     inkscape:current-layer="svg22" />
  <defs
     id="defs4">
    <style
       type="text/css"
       id="style2">
			.land
			{
				fill: #CCCCCC;
				fill-opacity: 1;
				stroke:white;
				stroke-opacity: 1;
				stroke-width:0.5;
			}
		</style>
    <amcharts:ammap
       projection="mercator"
       leftLongitude="-17.531313"
       topLatitude="16.691273"
       rightLongitude="-11.341837"
       bottomLatitude="12.307237" />
    <!-- All areas are listed in the line below. You can use this list in your script. -->
    <!--{id:"SN-DK"},{id:"SN-DB"},{id:"SN-FK"},{id:"SN-KE"},{id:"SN-KA"},{id:"SN-KL"},{id:"SN-KD"},{id:"SN-LG"},{id:"SN-MT"},{id:"SN-SE"},{id:"SN-SL"},{id:"SN-TC"},{id:"SN-TH"},{id:"SN-ZG"}-->
  </defs>
  <path
     style="fill:#cccccc;fill-opacity:1;stroke:#ffffff;stroke-width:0.20271847;stroke-opacity:1"
     d="m 404.50732,229.06753 c 0,0 -6.3596,19.45746 -13.5619,25.74571 10.8111,18.3958 -19.9338,29.45036 -35.3237,26.82435 -14.7011,0.79693 -22.1654,20.81164 -38.1943,8.51705 -14.235,-3.45311 -27.9261,-1.94536 -40.958,7.81743 -14.6314,-1.32958 -31.3077,-11.14331 -41.2543,4.1389 1.9097,16.80456 -11.9637,15.58234 -22.9585,7.74073 -14.545,2.21032 -4.7938,-6.7178 -30.3802,-13.50859 -14.9813,-14.02272 -22.8548,-9.15173 -12.4355,-28.10898 10.1577,-4.54397 14.2497,-12.28803 0.1967,-10.87082 -4.1777,-5.96932 -14.4859,-25.59654 -13.1532,-5.67721 4.7131,11.17391 -0.714,25.07401 -5.7724,32.636 -5.3478,-14.28247 -25.01,-17.41869 -30.0288,-28.17777 -0.4015,-16.91617 -10.2597,14.25066 -20.0658,10.45374 -15.754904,5.02749 -10.141304,-24.08267 1.1958,-36.29086 24.0492,-3.69386 6.5524,-53.40769 -0.026,-21.97594 -1.7028,26.54959 -30.454504,12.68851 -22.347304,36.13344 -0.01,18.13401 10.4023,40.84399 -14.9555,46.34845 -15.5602,9.05758 -29.5553,30.04331 -47.590099,22.27718 -7.5941,-16.30732 -5.7611,-37.19966 -6.424,-55.15248 8.3987,-11.64938 20.527199,-32.94828 37.233499,-26.73562 12.476,-6.72514 -14.2229,-20.61075 -22.256899,-8.82766 0,0 -14.5527,27.9713 -20.9013,15.08871 2.7228,-13.35311 -0.1435,-27.42895 12.668,-37.85512 0.3659,-11.71485 -7.2053,-19.06024 -11.1887,-4.81169 -9.2773,6.68371 -4.9571,-23.0994 1.8878,-27.98731 16.0332,-16.62138 18.5584,-39.56358 13.9568,-61.10097 9.345699,-13.466805 1.6947,-33.299235 9.405599,-42.777085 3.766,-11.67707 -4.761599,-22.264659 0.86,-34.299764 5.549,-4.060658 20.5681,-9.458676 14.2141,-22.0531737 12.1384,-10.1106291 28.6906,-4.8816611 43.4864,-6.47677013 L 211.53992,1.1719992 c 16.8809,0.422958 34.764,-0.18804503 52.121,0.487247 37.7634,0.950871 75.5196,-1.50676003 113.2713,0.373771 22.4844,0.350793 45.201,-0.572177 67.9824,0.09384 8.1652,-0.826652 28.2728,-1.58969403 12.1706,9.1821688 -20.809,18.966833 30.6467,16.317574 7.577,35.509988 -13.3036,15.283591 -12.7112,38.908861 -29.3721,51.108373 -8.2524,14.112903 -21.1466,27.145653 -6.5089,42.968283 -7.0275,10.22167 -1.0344,25.35019 -15.9772,32.52116 -0.1965,10.52977 -2.0636,21.12606 -4.0823,30.86782 3.9347,6.49944 -3.3197,25.07307 -3.3197,25.07307 l -0.8947,-0.29022 z"
     title="Bignona"
     id="path1494"
     inkscape:connector-curvature="0"
     sodipodi:nodetypes="cccccccccccccccccccccccccccccccccccccccccccc" />
  <path
     style="fill:#cccccc;fill-opacity:1;stroke:#ffffff;stroke-width:0.20271847;stroke-opacity:1"
     d="m 143.52942,321.90214 c 6.4336,-2.16763 15.7812,-2.45041 12.6009,7.18427 -3.9046,9.10968 4.7324,18.47368 13.7682,18.80797 6.1603,1.97772 7.1937,16.09329 -2.0174,13.35262 -3.6804,7.66049 2.3029,17.35862 6.4446,23.71404 11.6199,1.37041 6.5993,11.77706 1.2265,17.23412 -5.3106,6.25167 -2.0568,15.02087 6.3427,14.21417 5.7877,7.52089 -6.8494,1.51766 -4.1663,8.07938 m -0.047,0.83901 c -8.2574,0.29711 -17.4285,6.27993 -25.1157,3.1828 -9.1456,-0.71649 -19.0872,-4.65599 -27.6976,-0.0373 -8.5545,2.66437 -17.657,4.07784 -26.424404,1.66076 -11.2609,-1.6207 -22.6395,-5.7037 -34.0267,-3.15743 -8.5152,3.16846 -17.6072,8.36515 -21.277,17.01822 -3.1062,3.67849 -8.2314,-9.13722 -8.467,-13.09903 -1.229,-9.72551 -6.959499,-18.42079 -15.818299,-22.77519 -11.1848,-6.3836 -16.4756,-19.5556 -18.7522,-31.62401 1.1431,-7.99114 -0.6099,-16.80997 3.6628,-24.05546 6.2506,-8.29134 11.9464,-20.28498 23.0272,-22.39965 6.813399,0.37482 8.490399,-8.62662 16.339999,-6.24159 4.693,-0.83337 14.2458,-7.12928 9.28,2.03806 0.01,5.89477 14.834,4.1106 12.3615,-2.98796 4.4062,-7.04994 15.0758,-5.044 20.6332,-11.41199 8.6841,-4.19858 7.9734,-14.7451 12.7858,-21.44757 9.021804,-0.71973 12.641304,-15.47233 22.037204,-7.70298 11.4138,4.56782 10.1621,17.43213 10.3103,27.43632 1.8507,6.1431 6.9482,14.06149 13.9238,14.50577 -0.1532,-0.83719 -0.3063,-1.67441 -0.4594,-2.5116"
     title="Oussouye"
     id="path1496"
     inkscape:connector-curvature="0" />
  <path
     style="fill:#cccccc;fill-opacity:1;stroke:#ffffff;stroke-width:0.20271847;stroke-opacity:1"
     d="m 211.61142,423.81475 c 13.552,-4.91782 25.4083,-14.64807 39.2247,-20.01597 11.2854,-6.85249 22.0182,-14.27641 34.1739,-19.92703 11.4225,-8.06859 25.1272,-16.22599 39.4674,-9.90985 10.3312,3.1153 20.762,-0.28635 31.1467,-2.42401 12.3558,-3.86805 25.3116,-6.60503 38.1417,-5.32835 15.7797,4.2972 31.1885,10.49616 46.9623,14.95309 9.9539,-2.70747 25.0101,1.13149 31.7701,-5.52437 1.5166,-14.02034 -15.605,-11.60307 -22.4491,-13.25308 -6.8867,-7.87067 8.97,-9.0331 3.0777,-18.87999 -2.5215,-10.78945 -20.1587,-11.74855 -16.2201,-24.99044 -3.8693,-5.2478 -11.024,-8.60418 -3.6526,-15.87516 6.4636,-6.63866 -8.6039,-7.27463 -10.8226,-15.0443 -9.5168,-10.85227 -25.7022,-7.93396 -34.2415,2.32484 -11.28,6.01231 -26.069,-2.47389 -35.8956,7.64623 -11.621,4.93765 -24.5971,6.25523 -35.5986,12.66779 -0.9726,-12.4399 -14.87,-18.21015 -22.334,-6.95089 -12.0628,5.36086 -33.9792,3.92037 -33.9792,3.92037 0,0 -15.9212,-1.03018 -16.0592,10.39533 -7.9581,12.39457 -38.5782,9.94641 -38.5782,9.94641 0,0 -31.1226,-27.87629 -50.8106,-27.93484 -14.9026,-3.42164 -21.8538,27.72114 -3.8389,20.93578 12.3787,0.90153 -2.9969,21.09485 10.9572,24.87275 8.2531,-0.94106 17.9899,10.89292 9.4782,15.43993 -11.2274,1.30519 -1.2003,22.1138 5.2013,25.1647 16.8116,4.93694 -17.8053,26.51749 2.7402,29.37265 11.5578,3.98569 -8.5511,6.52263 0.4505,9.3623 10.5527,-0.6156 21.136,-0.37315 31.6883,-0.94389 z"
     title="Ziguinchor"
     id="path1498"
     inkscape:connector-curvature="0"
     sodipodi:nodetypes="cccccccccccccccccccccccccccc" />
</svg>
